# Blender v2.69 (sub 0) OBJ File: 'minekart.blend'
# www.blender.org
mtllib minekart.mtl
o Cube
v 0.323061 0.005785 -0.373259
v 0.323060 0.005785 0.323061
v -0.323061 0.005785 0.323060
v -0.323060 0.005785 -0.373260
v 0.323061 0.458945 -0.263038
v 0.323060 0.458945 0.323061
v -0.323061 0.458945 0.323060
v -0.323060 0.458945 -0.263038
v 0.323061 0.005785 -0.565007
v -0.323060 0.005785 -0.565008
v 0.323061 0.221424 -0.565007
v -0.323060 0.221424 -0.565007
v 0.216224 0.005785 -0.902079
v -0.216223 0.005785 -0.902080
v 0.216224 0.165016 -0.902079
v -0.216223 0.165016 -0.902079
v 0.323060 0.005784 0.489474
v -0.323061 0.005784 0.489474
v 0.323060 0.254409 0.489475
v -0.323061 0.254409 0.489474
v 0.323060 0.005784 0.606039
v -0.323061 0.005784 0.606039
v 0.323060 0.212832 0.606039
v -0.323061 0.212832 0.606039
v 0.290740 0.447063 -0.278143
v -0.290739 0.447063 -0.278144
v 0.290740 0.233306 -0.549902
v -0.290739 0.233306 -0.549902
v 0.300937 0.451941 0.328759
v -0.300938 0.451941 0.328758
v 0.300937 0.261412 0.483777
v -0.300938 0.261412 0.483776
vt 0.018126 0.018126
vt 0.981874 0.018126
vt 0.018126 0.981874
vt 0.172805 0.542631
vt 0.253500 0.542631
vt 0.172805 0.610773
vt 0.801046 0.935819
vt 0.821392 1.013689
vt 0.929581 1.013689
vt 0.960299 0.978542
vt 0.929581 0.935819
vt 0.765651 0.972875
vt 0.253500 0.507523
vt 0.172805 0.507523
vt 0.240157 0.468334
vt 0.765651 0.935819
vt 0.383086 0.392875
vt 0.383086 0.401431
vt 0.358125 0.392875
vt 0.703430 0.935819
vt 0.172805 0.630121
vt 0.253500 0.630121
vt 0.172805 0.643673
vt 0.960299 0.935819
vt 0.981816 0.935819
vt 0.551974 0.566378
vt 0.550044 0.566378
vt 0.551974 0.565717
vt 0.550044 0.565809
vt 0.253500 0.610773
vt 0.981874 0.981874
vt 0.186148 0.468334
vt 0.358125 0.401431
vt 0.703430 0.963181
vt 0.253500 0.643673
vt 0.981816 0.971398
vt 0.550044 0.565717
vt 0.551974 0.565809
vn 0.707083 -0.707083 0.000000
vn -0.707083 -0.707083 0.000000
vn 0.640339 0.725791 -0.251228
vn -0.640339 0.725791 -0.251228
vn 0.621998 0.707114 0.336253
vn -0.621998 0.707114 0.336253
vn -0.773003 0.518052 0.366100
vn 0.000000 0.631092 0.775658
vn 0.771050 0.534654 -0.345775
vn 0.000000 0.785974 -0.618213
vn -0.771050 0.534654 -0.345775
vn -0.477706 0.535630 -0.696310
vn -0.729789 -0.674245 -0.112888
vn 0.729789 -0.674245 -0.112888
vn 0.477706 0.535630 -0.696310
vn 0.474654 -0.595203 -0.648366
vn -0.474654 -0.595203 -0.648366
vn 0.773003 0.518052 0.366100
vn 0.597522 0.462020 0.655324
vn 0.577349 -0.577349 0.577349
vn -0.577349 -0.577349 0.577349
vn 0.000000 0.631092 0.775689
vn -0.597522 0.462020 0.655324
g Cube_Cube_Material.005
usemtl Material.005
s 1
f 1/1/1 2/2/1 4/3/2
f 5/4/3 8/5/4 6/6/5
f 1/7/1 5/8/3 6/9/5
f 7/9/6 20/10/7 30/9/8
f 3/11/2 7/9/6 4/7/2
f 5/8/3 11/12/9 25/8/10
f 12/13/11 11/14/9 16/15/12
f 4/7/2 8/8/4 10/16/13
f 5/8/3 1/7/1 9/16/14
f 1/1/1 4/2/2 9/3/14
f 15/17/15 13/18/16 16/19/12
f 10/16/13 12/12/11 14/20/17
f 11/12/9 9/16/14 13/20/16
f 9/1/14 10/2/13 13/3/16
f 19/21/18 20/22/7 23/23/19
f 7/9/6 3/11/2 18/24/2
f 2/11/1 6/9/5 17/24/1
f 3/1/2 2/2/1 18/3/2
f 21/1/20 23/2/19 22/3/21
f 20/10/7 18/24/2 22/25/21
f 17/24/1 19/10/18 21/25/20
f 18/1/2 17/2/1 22/3/21
f 26/26/10 25/27/10 28/28/10
f 12/12/11 8/8/4 28/12/10
f 11/14/9 12/13/11 27/14/10
f 8/5/4 5/4/3 26/5/10
f 29/27/22 30/26/8 31/29/22
f 19/10/18 6/9/5 31/10/22
f 20/22/7 19/21/18 32/22/22
f 6/6/5 7/30/6 29/6/22
f 2/2/1 3/31/2 4/3/2
f 8/5/4 7/30/6 6/6/5
f 2/11/1 1/7/1 6/9/5
f 20/10/7 32/10/22 30/9/8
f 7/9/6 8/8/4 4/7/2
f 11/12/9 27/12/10 25/8/10
f 11/14/9 15/32/15 16/15/12
f 8/8/4 12/12/11 10/16/13
f 11/12/9 5/8/3 9/16/14
f 4/2/2 10/31/13 9/3/14
f 13/18/16 14/33/17 16/19/12
f 12/12/11 16/34/12 14/20/17
f 15/34/15 11/12/9 13/20/16
f 10/2/13 14/31/17 13/3/16
f 20/22/7 24/35/23 23/23/19
f 20/10/7 7/9/6 18/24/2
f 6/9/5 19/10/18 17/24/1
f 2/2/1 17/31/1 18/3/2
f 23/2/19 24/31/23 22/3/21
f 24/36/23 20/10/7 22/25/21
f 19/10/18 23/36/19 21/25/20
f 17/2/1 21/31/20 22/3/21
f 25/27/10 27/37/10 28/28/10
f 8/8/4 26/8/10 28/12/10
f 12/13/11 28/13/10 27/14/10
f 5/4/3 25/4/10 26/5/10
f 30/26/8 32/38/22 31/29/22
f 6/9/5 29/9/22 31/10/22
f 19/21/18 31/21/22 32/22/22
f 7/30/6 30/30/8 29/6/22
