# Blender v2.74 (sub 0) OBJ File: 'New track.blend'
# www.blender.org
mtllib New track.mtl
o Track_Plane.001
v -97.848923 0.000000 -123.355049
v -79.729698 0.000000 -120.636879
v -96.485138 0.000000 -127.087791
v -94.823463 0.000000 -130.395584
v -92.451340 0.000000 -133.259964
v -89.499268 0.000000 -135.764008
v -86.188553 0.000000 -137.561508
v -82.672050 0.000000 -138.650253
v -78.845093 0.000000 -139.028931
v -80.327751 0.000000 -139.028976
v -78.845093 0.000000 -121.023445
v -98.059425 0.000000 -119.781311
v -79.975990 0.000000 -119.781311
v -98.059425 0.000000 56.010181
v -79.975990 0.000000 56.010181
v 27.232973 0.000000 -139.028931
v 27.232973 0.000000 -121.023445
v 30.914680 0.000000 -138.815536
v 28.196516 0.000000 -120.696304
v 34.647430 0.000000 -137.451752
v 37.955215 0.000000 -135.790085
v 40.819599 0.000000 -133.417953
v 43.323639 0.000000 -130.465881
v 45.121132 0.000000 -127.155159
v 46.209877 0.000000 -123.638657
v 46.588570 0.000000 -119.811699
v 46.588596 0.000000 -121.294357
v 28.583080 0.000000 -119.811699
v 46.588570 0.000000 -68.064423
v 28.583080 0.000000 -68.064423
v 46.374336 0.000000 -64.336395
v 28.255121 0.000000 -67.054558
v 45.010559 0.000000 -60.603642
v 43.348892 0.000000 -57.295856
v 40.976772 0.000000 -54.431473
v 38.024677 0.000000 -51.927429
v 34.713966 0.000000 -50.129936
v 31.197466 0.000000 -49.041191
v 27.370516 0.000000 -48.662491
v 28.853172 0.000000 -48.662472
v 27.370516 0.000000 -66.667992
v -28.902922 0.000000 -48.662491
v -28.902922 0.000000 -66.667992
v -47.911171 -0.000000 -50.994286
v -29.791948 -0.000000 -48.276115
v -46.547390 -0.000000 -54.727028
v -44.885715 -0.000000 -58.034813
v -42.513596 -0.000000 -60.899200
v -39.561508 -0.000000 -63.403240
v -36.250801 -0.000000 -65.200729
v -32.734306 -0.000000 -66.289474
v -30.038242 -0.000000 -21.611143
v -30.390003 -0.000000 -66.668198
v -48.121681 -0.000000 -21.611143
v -48.121681 -0.000000 -47.420547
v -30.038242 -0.000000 -47.420547
v -32.295483 0.000000 -2.469613
v -29.577311 0.000000 -20.588831
v -36.028225 0.000000 -3.833394
v -39.335999 0.000000 -5.495068
v -42.200382 0.000000 -7.867188
v -44.704426 0.000000 -10.819265
v -46.501926 0.000000 -14.129978
v -47.590672 0.000000 -17.646479
v 80.571365 0.000000 -20.342541
v -47.969391 0.000000 -19.990772
v 80.571365 0.000000 -2.259104
v -28.721743 0.000000 -2.259104
v -28.721743 0.000000 -20.342541
v 84.258804 0.000000 -20.046278
v 81.540634 0.000000 -1.927043
v 87.991531 0.000000 -18.682480
v 91.299324 0.000000 -17.020815
v 94.163696 0.000000 -14.648696
v 96.667740 0.000000 -11.696618
v 98.465240 0.000000 -8.385888
v 99.553986 0.000000 -4.869405
v 99.932686 0.000000 -1.042437
v 99.932709 0.000000 -2.525094
v 81.927193 0.000000 -1.042437
v 81.927193 0.000000 55.905930
v 99.932686 0.000000 55.905930
v 99.715454 -0.000001 59.633659
v 81.596230 -0.000001 56.915504
v 98.351669 -0.000001 63.366421
v 96.690002 -0.000001 66.674194
v 94.317886 -0.000001 69.538589
v 91.365791 -0.000001 72.042633
v 88.055077 -0.000001 73.840118
v 84.538574 -0.000001 74.928864
v 80.711624 -0.000001 75.307564
v 82.194283 -0.000001 75.307579
v 80.711624 -0.000001 57.302071
v 34.506916 -0.000001 75.307564
v 34.506916 -0.000001 57.302071
v 36.827442 0.000000 38.199814
v 34.109280 0.000000 56.319035
v 40.560192 0.000000 39.563595
v 43.867981 0.000000 41.225277
v 46.732365 0.000000 43.597397
v 49.236404 0.000000 46.549477
v 51.033897 0.000000 49.860188
v 52.122643 0.000000 53.376690
v 52.562508 -0.000001 57.302071
v 52.501362 0.000000 55.720982
v 33.253704 0.000000 37.989307
v 33.253704 0.000000 56.072750
v 52.382416 -0.000000 78.950684
v 52.562508 -0.000001 75.307564
v 34.263191 -0.000000 76.232506
v 51.018639 -0.000000 82.683426
v 49.356964 -0.000000 85.991219
v 46.984844 -0.000000 88.855591
v 44.032757 -0.000000 91.359634
v 40.722046 -0.000000 93.157135
v 37.205544 -0.000000 94.245880
v 33.378586 -0.000000 94.624565
v 34.861244 -0.000000 94.624603
v 33.378586 -0.000000 76.619072
v -33.702869 0.000000 37.989307
v -33.702869 0.000000 56.072750
v -33.577988 -0.000000 94.624565
v -33.577988 -0.000000 76.619072
v -34.949680 -0.000001 57.354546
v -34.949680 -0.000001 75.360039
v -37.270210 0.000000 94.462296
v -34.552044 0.000000 76.343079
v -41.002960 0.000000 93.098511
v -44.310738 0.000000 91.436829
v -47.175129 0.000000 89.064713
v -49.679173 0.000000 86.112633
v -51.476662 0.000000 82.801918
v -52.565407 0.000000 79.285423
v -53.005272 -0.000001 75.360039
v -52.944130 0.000000 76.941124
v -79.684341 0.000001 57.052868
v -82.402519 0.000001 75.172089
v -52.825184 -0.000000 53.711430
v -53.005272 -0.000001 57.354546
v -34.705956 -0.000000 56.429600
v -51.461403 -0.000000 49.978687
v -49.799728 -0.000000 46.670891
v -47.427608 -0.000000 43.806515
v -44.475525 -0.000000 41.302475
v -41.164810 -0.000000 39.504974
v -37.648308 -0.000000 38.416229
v -78.356956 -0.000001 75.360039
v -35.304012 -0.000000 38.037510
v -78.356964 -0.000001 57.354546
v -86.135262 0.000001 73.808304
v -89.443047 0.000001 72.146645
v -92.307419 0.000001 69.774521
v -94.811462 0.000001 66.822426
v -96.608963 0.000001 63.511715
v -97.697708 0.000001 59.995232
v -98.076431 0.000001 57.650921
vt 0.769333 0.225535
vt 0.771128 0.229994
vt 0.670282 0.245172
vt 0.767849 0.332367
vt 0.776053 0.232143
vt 0.677883 0.265945
vt 0.687141 0.284352
vt 0.700352 0.300289
vt 0.716791 0.314219
vt 0.735223 0.324215
vt 0.754799 0.330266
vt 0.669112 0.225584
vt 0.776101 0.332363
vn 0.000000 1.000000 0.000000
usemtl Material.005
s off
f 13/1/1 2/2/1 1/3/1
f 10/4/1 2/2/1 11/5/1
f 1/3/1 2/2/1 3/6/1
f 3/6/1 2/2/1 4/7/1
f 4/7/1 2/2/1 5/8/1
f 5/8/1 2/2/1 6/9/1
f 6/9/1 2/2/1 7/10/1
f 7/10/1 2/2/1 8/11/1
f 8/11/1 2/2/1 10/4/1
f 12/12/1 14/12/1 15/1/1
f 11/5/1 17/5/1 16/13/1
f 17/1/1 19/2/1 18/3/1
f 27/4/1 19/2/1 28/5/1
f 18/3/1 19/2/1 20/6/1
f 20/6/1 19/2/1 21/7/1
f 21/7/1 19/2/1 22/8/1
f 22/8/1 19/2/1 23/9/1
f 23/9/1 19/2/1 24/10/1
f 24/10/1 19/2/1 25/11/1
f 25/11/1 19/2/1 27/4/1
f 28/5/1 30/5/1 29/13/1
f 30/1/1 32/2/1 31/3/1
f 40/4/1 32/2/1 41/5/1
f 31/3/1 32/2/1 33/6/1
f 33/6/1 32/2/1 34/7/1
f 34/7/1 32/2/1 35/8/1
f 35/8/1 32/2/1 36/9/1
f 36/9/1 32/2/1 37/10/1
f 37/10/1 32/2/1 38/11/1
f 38/11/1 32/2/1 40/4/1
f 41/5/1 43/5/1 42/13/1
f 56/1/1 45/2/1 44/3/1
f 53/4/1 45/2/1 42/5/1
f 44/3/1 45/2/1 46/6/1
f 46/6/1 45/2/1 47/7/1
f 47/7/1 45/2/1 48/8/1
f 48/8/1 45/2/1 49/9/1
f 49/9/1 45/2/1 50/10/1
f 50/10/1 45/2/1 51/11/1
f 51/11/1 45/2/1 53/4/1
f 55/12/1 54/12/1 52/1/1
f 69/1/1 58/2/1 57/3/1
f 66/4/1 58/2/1 52/5/1
f 57/3/1 58/2/1 59/6/1
f 59/6/1 58/2/1 60/7/1
f 60/7/1 58/2/1 61/8/1
f 61/8/1 58/2/1 62/9/1
f 62/9/1 58/2/1 63/10/1
f 63/10/1 58/2/1 64/11/1
f 64/11/1 58/2/1 66/4/1
f 68/12/1 67/12/1 65/1/1
f 67/1/1 71/2/1 70/3/1
f 79/4/1 71/2/1 80/5/1
f 70/3/1 71/2/1 72/6/1
f 72/6/1 71/2/1 73/7/1
f 73/7/1 71/2/1 74/8/1
f 74/8/1 71/2/1 75/9/1
f 75/9/1 71/2/1 76/10/1
f 76/10/1 71/2/1 77/11/1
f 77/11/1 71/2/1 79/4/1
f 80/5/1 81/5/1 82/13/1
f 81/1/1 84/2/1 83/3/1
f 92/4/1 84/2/1 93/5/1
f 83/3/1 84/2/1 85/6/1
f 85/6/1 84/2/1 86/7/1
f 86/7/1 84/2/1 87/8/1
f 87/8/1 84/2/1 88/9/1
f 88/9/1 84/2/1 89/10/1
f 89/10/1 84/2/1 90/11/1
f 90/11/1 84/2/1 92/4/1
f 118/4/1 110/2/1 119/5/1
f 107/1/1 97/2/1 96/3/1
f 96/3/1 97/2/1 98/6/1
f 98/6/1 97/2/1 99/7/1
f 99/7/1 97/2/1 100/8/1
f 100/8/1 97/2/1 101/9/1
f 101/9/1 97/2/1 102/10/1
f 102/10/1 97/2/1 103/11/1
f 103/11/1 97/2/1 105/4/1
f 105/4/1 97/2/1 95/5/1
f 94/1/1 110/2/1 108/3/1
f 104/5/1 95/5/1 94/13/1
f 93/5/1 104/5/1 109/13/1
f 108/3/1 110/2/1 111/6/1
f 111/6/1 110/2/1 112/7/1
f 112/7/1 110/2/1 113/8/1
f 113/8/1 110/2/1 114/9/1
f 114/9/1 110/2/1 115/10/1
f 115/10/1 110/2/1 116/11/1
f 116/11/1 110/2/1 118/4/1
f 119/5/1 123/5/1 122/13/1
f 106/12/1 120/12/1 121/1/1
f 148/4/1 140/2/1 121/5/1
f 123/1/1 127/2/1 126/3/1
f 126/3/1 127/2/1 128/6/1
f 128/6/1 127/2/1 129/7/1
f 129/7/1 127/2/1 130/8/1
f 130/8/1 127/2/1 131/9/1
f 131/9/1 127/2/1 132/10/1
f 132/10/1 127/2/1 133/11/1
f 133/11/1 127/2/1 135/4/1
f 135/4/1 127/2/1 125/5/1
f 124/1/1 140/2/1 138/3/1
f 134/5/1 125/5/1 124/13/1
f 138/3/1 140/2/1 141/6/1
f 141/6/1 140/2/1 142/7/1
f 142/7/1 140/2/1 143/8/1
f 143/8/1 140/2/1 144/9/1
f 144/9/1 140/2/1 145/10/1
f 145/10/1 140/2/1 146/11/1
f 146/11/1 140/2/1 148/4/1
f 139/13/1 149/13/1 147/5/1
f 149/1/1 136/2/1 137/3/1
f 156/4/1 136/2/1 15/5/1
f 137/3/1 136/2/1 150/6/1
f 150/6/1 136/2/1 151/7/1
f 151/7/1 136/2/1 152/8/1
f 152/8/1 136/2/1 153/9/1
f 153/9/1 136/2/1 154/10/1
f 154/10/1 136/2/1 155/11/1
f 155/11/1 136/2/1 156/4/1
f 12/12/1 13/1/1 1/3/1
f 9/13/1 10/4/1 11/5/1
f 13/1/1 12/12/1 15/1/1
f 9/13/1 11/5/1 16/13/1
f 16/12/1 17/1/1 18/3/1
f 26/13/1 27/4/1 28/5/1
f 26/13/1 28/5/1 29/13/1
f 29/12/1 30/1/1 31/3/1
f 39/13/1 40/4/1 41/5/1
f 39/13/1 41/5/1 42/13/1
f 55/12/1 56/1/1 44/3/1
f 43/13/1 53/4/1 42/5/1
f 56/1/1 55/12/1 52/1/1
f 68/12/1 69/1/1 57/3/1
f 54/13/1 66/4/1 52/5/1
f 69/1/1 68/12/1 65/1/1
f 65/12/1 67/1/1 70/3/1
f 78/13/1 79/4/1 80/5/1
f 78/13/1 80/5/1 82/13/1
f 82/12/1 81/1/1 83/3/1
f 91/13/1 92/4/1 93/5/1
f 117/13/1 118/4/1 119/5/1
f 106/12/1 107/1/1 96/3/1
f 104/13/1 105/4/1 95/5/1
f 109/12/1 94/1/1 108/3/1
f 109/13/1 104/5/1 94/13/1
f 91/13/1 93/5/1 109/13/1
f 117/13/1 119/5/1 122/13/1
f 107/1/1 106/12/1 121/1/1
f 120/13/1 148/4/1 121/5/1
f 122/12/1 123/1/1 126/3/1
f 134/13/1 135/4/1 125/5/1
f 139/12/1 124/1/1 138/3/1
f 139/13/1 134/5/1 124/13/1
f 134/5/1 139/13/1 147/5/1
f 147/12/1 149/1/1 137/3/1
f 14/13/1 156/4/1 15/5/1
