# Blender v2.72 (sub 0) OBJ File: ''
# www.blender.org
v 4.605985 0.000001 -2.703096
v 3.829690 0.000001 -2.703096
v 3.829690 0.000000 3.227407
v 4.605985 0.000001 2.744928
v 4.446642 0.000002 -3.315203
v 3.746428 0.000002 -3.095563
v 3.670250 0.000002 -3.226153
v 4.366837 0.000002 -3.474813
v 4.214482 0.000002 -3.761385
v 3.532405 0.000002 -3.371253
v 2.412714 0.000001 -3.460437
v 2.699788 0.000001 -4.384303
v 2.406844 0.000001 -4.307976
v 2.251761 0.000001 -3.374371
v 2.734082 0.000001 -3.546552
v 3.232160 0.000001 -4.387928
v 3.040952 0.000001 -3.544502
v 3.519454 0.000002 -4.307976
v 2.089958 0.000001 -3.208503
v 1.476026 0.000001 -3.441743
v 0.789598 0.000000 -2.074288
v 1.327406 0.000000 -1.666616
v 0.705326 0.000000 -1.978396
v 1.095437 0.000000 -1.429770
v 0.558209 0.000000 -1.892497
v 0.947034 0.000000 -1.353486
v -1.566046 0.000000 -1.894614
v -1.001361 0.000000 -2.439498
v -1.254335 0.000001 -3.467768
v -1.929480 0.000001 -3.275166
v -0.730620 0.000000 -1.275955
v -0.612686 0.000000 -1.890638
v -0.773044 0.000000 -1.972055
v -1.007004 0.000000 -1.347873
v -0.868369 0.000000 -2.052613
v -1.161026 0.000000 -1.423099
v -1.484437 0.000000 -1.737442
v -0.937888 0.000000 -2.203740
v -1.418073 0.000001 -3.772062
v -2.119139 0.000001 -3.461704
v -1.642392 0.000001 -4.002315
v -2.306694 0.000001 -3.554648
v -1.954000 0.000001 -4.158103
v -2.577960 0.000001 -3.619151
v -2.247112 0.000001 -4.231462
v -3.230746 0.000001 -4.231462
v -2.880372 0.000001 -3.617207
v -3.512836 -0.000000 -4.158421
v -3.192686 0.000001 -3.539129
v -3.830186 -0.000000 -4.004783
v -3.353880 -0.000000 -3.466088
v -3.661827 -0.000000 -3.156021
v -4.147618 -0.000000 -3.681533
v -4.529517 -0.000001 -2.908569
v -3.907418 -0.000001 -2.685589
v -4.595508 -0.000001 -2.622609
v -3.990738 -0.000001 -2.350969
v -4.606506 -0.000001 -1.563827
v -3.990005 -0.000001 -1.753384
v -4.451918 -0.000001 -0.955863
v -3.832362 -0.000001 -1.148475
v -4.372488 -0.000001 -0.787838
v -3.762097 -0.000001 -0.977395
v -4.290003 -0.000001 -0.632034
v -3.670447 -0.000001 -0.876580
v -4.060878 -0.000001 -0.399854
v -3.432157 -0.000001 -0.818535
v -3.743158 -0.000001 -0.247104
v -3.175537 0.000000 -0.754380
v -3.205479 0.000000 -0.109629
v -3.047227 0.000000 -0.726885
v 0.488031 -0.000000 0.812035
v 0.646282 -0.000000 0.194779
v 0.779141 -0.000000 0.990082
v 1.314926 -0.000000 0.366339
v 0.782769 -0.000000 1.150753
v 1.640443 -0.000000 0.533496
v 0.707988 -0.000000 1.227844
v 1.798803 -0.000000 0.779834
v 1.867884 -0.000000 1.051015
v 1.847190 -0.000000 1.325295
v 1.626686 -0.000000 1.797430
v 1.790111 -0.000000 1.576519
v 1.130273 -0.000000 2.002095
v 0.468492 -0.000000 1.234376
v 0.176742 -0.000000 1.234376
v 0.187989 -0.000000 2.004702
v 1.408962 -0.000000 1.928064
v -0.173345 -0.000000 1.234376
v -0.162098 -0.000000 2.004702
v -0.317537 -0.000000 1.234376
v -0.316740 -0.000000 1.842722
v -3.049212 -0.000000 1.234376
v -3.048415 -0.000000 1.842722
v -3.410594 -0.000001 1.238731
v -3.422858 -0.000001 1.929800
v -3.800283 -0.000001 1.371933
v -3.636410 -0.000001 2.053845
v -4.136963 -0.000001 1.620423
v -3.770356 -0.000001 2.182436
v -4.402549 -0.000001 1.912132
v -3.885135 -0.000001 2.352863
v -4.589766 -0.000001 2.351873
v -3.989980 -0.000001 2.671434
v -4.611535 -0.000002 3.361970
v -3.993982 -0.000002 3.250499
v -4.507042 -0.000002 3.710280
v -3.911258 -0.000002 3.568331
v -4.419965 -0.000002 3.884434
v -3.824181 -0.000002 3.742486
v -4.311118 -0.000002 4.102128
v -3.754519 -0.000002 3.812148
v -3.971516 -0.000002 4.433022
v -3.314778 -0.000002 4.029841
v -3.544837 -0.000002 4.650716
v -2.635575 -0.000001 4.195288
v -2.917880 -0.000001 4.816163
v -1.568213 -0.000001 4.820517
v -1.568909 -0.000001 4.199642
v -1.444858 -0.000001 4.810359
v -1.474579 -0.000001 4.119824
v -1.191618 -0.000001 4.758840
v -1.391133 -0.000001 3.960189
v -1.020373 -0.000001 4.675394
v -1.398389 -0.000001 3.698967
v -0.853481 -0.000001 4.497618
v -1.325828 -0.000001 3.408721
v -0.777292 -0.000001 4.341611
v -1.191589 -0.000001 3.198292
v -0.704730 -0.000001 4.076761
v -1.021069 -0.000001 3.114847
v -0.710777 -0.000001 3.885078
v -0.733242 -0.000000 3.039866
v 1.698447 -0.000001 4.260406
v 1.285556 -0.000001 4.700491
v 1.457949 -0.000001 4.888556
v 1.823824 -0.000001 4.338767
v 0.544420 -0.000001 3.100333
v 0.309904 -0.000001 3.718792
v 0.393255 -0.000000 3.041245
v 0.155716 -0.000001 3.646233
v -0.632773 -0.000001 3.730281
v -0.475506 -0.000001 3.644030
v 1.640790 -0.000001 4.977365
v 2.022337 -0.000001 4.432799
v 2.528877 -0.000001 5.201999
v 2.672168 -0.000001 4.594696
v 3.145871 -0.000001 5.206926
v 2.884017 -0.000001 4.596341
v 3.441758 0.000000 5.133933
v 3.194415 -0.000001 4.512465
v 3.744890 0.000000 4.985633
v 3.446760 0.000000 4.360538
v 3.980688 0.000000 4.746208
v 4.216486 0.000000 4.278240
v 3.664420 0.000000 3.896197
v 4.463168 0.000000 3.309654
v 3.822712 0.000002 -4.160411
v 3.361912 0.000002 -3.458313
v 1.947175 0.000001 -4.077770
v 1.639856 0.000001 -3.772969
v 0.652111 0.000000 -1.275995
vt -22.749512 -15.261727
vt -18.797791 -15.261727
vt -18.797791 14.927526
vt -21.938377 -18.377647
vt -18.373932 -17.259575
vt -21.532120 -19.190147
vt -20.756561 -20.648951
vt -17.284454 -18.662979
vt -17.986145 -17.924343
vt -13.046013 -23.819904
vt -11.554775 -23.431355
vt -10.765327 -18.678846
vt -15.756058 -23.838364
vt -11.584656 -19.116961
vt -17.218521 -23.431355
vt -13.220581 -19.555332
vt -6.816444 -19.021801
vt -3.322178 -12.060769
vt -6.059896 -9.985509
vt -2.893200 -11.572635
vt -4.879059 -8.779850
vt -2.144289 -11.135364
vt 8.669231 -11.146136
vt 5.794701 -13.919864
vt 7.082466 -19.154282
vt 4.416489 -7.996855
vt 3.816152 -11.125902
vt 4.632450 -11.540349
vt 5.823425 -8.362943
vt 5.117701 -11.950427
vt 8.253805 -10.346049
vt 5.471592 -12.719744
vt 6.607473 -8.745885
vt 7.915970 -20.703283
vt 11.484749 -19.123413
vt 9.057865 -21.875391
vt 12.439499 -19.596531
vt 10.644115 -22.668434
vt 13.820381 -19.924896
vt 12.136196 -23.041868
vt 17.143387 -23.041868
vt 15.359802 -19.915001
vt 18.579361 -22.670042
vt 16.949638 -19.517538
vt 20.194839 -21.887960
vt 21.810730 -20.242453
vt 23.754791 -16.307686
vt 20.587990 -15.172587
vt 24.090714 -14.851995
vt 21.012138 -13.469208
vt 24.146698 -9.462262
vt 21.008392 -10.427202
vt 23.359764 -6.367420
vt 22.955437 -5.512084
vt 19.848236 -6.477024
vt 22.535538 -4.718969
vt 19.381683 -5.963832
vt 21.369179 -3.537056
vt 18.168671 -5.668348
vt 19.751816 -2.759488
vt 16.862350 -5.341781
vt 17.014763 -2.059662
vt 16.209194 -5.201810
vt -1.787051 2.632071
vt -2.592638 -0.510078
vt -3.268951 3.538422
vt -5.996363 0.363245
vt -3.287424 4.356314
vt -7.653412 1.214165
vt -2.906752 4.748748
vt -8.811199 3.848601
vt -8.705856 5.244814
vt -7.583378 7.648223
vt -5.056389 8.690066
vt -1.687598 4.781998
vt -0.202440 4.781998
vt -8.459538 2.468147
vt -6.475056 8.313215
vt -0.259691 8.703341
vt 1.579680 4.781998
vt 1.522429 8.703341
vt 2.313691 4.781998
vt 2.309632 7.878778
vt 16.219284 4.781998
vt 18.058899 4.804165
vt 18.121338 8.322052
vt 20.042625 5.482225
vt 19.208420 8.953503
vt 21.756485 6.747170
vt 19.890274 9.608093
vt 23.108452 8.232123
vt 20.474556 10.475654
vt 24.061485 10.470611
vt 21.008286 12.097343
vt 24.172302 15.612514
vt 21.028641 15.045074
vt 23.640373 17.385588
vt 20.607529 16.662989
vt 23.197113 18.272129
vt 20.164276 17.549522
vt 22.643021 19.380281
vt 19.809654 17.904140
vt 20.914276 21.064711
vt 17.571152 19.012318
vt 18.742271 22.172873
vt 14.113670 19.854513
vt 15.550739 23.015091
vt 8.680265 23.037252
vt 8.683804 19.876682
vt 8.052319 22.985540
vt 8.203623 19.470367
vt 6.763206 22.723276
vt 7.778839 18.657745
vt 5.891483 22.298489
vt 7.815777 17.327986
vt 5.041916 21.393534
vt 7.446400 15.850497
vt 4.654078 20.599371
vt 6.763062 14.779311
vt 4.284697 19.251162
vt 5.895021 14.354529
vt 4.315481 18.275396
vt 4.429842 13.972848
vt -7.948677 20.186008
vt -5.846857 22.426260
vt -6.724424 23.383612
vt -2.074109 14.280652
vt -0.880294 17.428919
vt -1.304598 13.979864
vt -0.095404 17.059561
vt 3.918404 17.487404
vt 3.117841 17.048347
vt -7.655186 23.835690
vt -9.597446 21.063576
vt -12.175991 24.979191
vt -12.905403 21.887709
vt -15.316788 25.004271
vt -13.983826 21.896082
vt -16.823013 24.632694
vt -18.366104 23.877771
vt -16.848480 20.695726
vt -19.566437 22.658979
vt -20.766769 20.276787
vt -17.956482 18.331999
vt -22.022491 15.346201
vt -22.749512 12.471464
vt -18.762260 -22.680182
vt -16.416557 -19.106150
vt -14.782707 -19.544895
vt -9.941666 -17.834496
vt -9.214828 -22.259499
vt -7.650421 -20.707914
vt -4.123606 -8.391526
vt -2.622307 -7.997057
vt 19.337814 -17.567326
vt 10.519287 -18.173847
vt 17.770195 -19.145720
vt 20.205917 -7.347908
vt -8.415298 6.523672
vt 16.215225 7.878778
vt -8.586910 20.584904
vt -15.563919 21.469107
vn 0.000000 1.000000 0.000000
vn 0.000000 -1.000000 0.000000
s off
f 1/1/1 2/2/1 3/3/1
f 1/1/1 5/4/1 6/5/1
f 8/6/1 9/7/1 10/8/1
f 5/4/1 8/6/1 7/9/1
f 12/10/1 13/11/1 14/12/1
f 16/13/1 12/10/1 11/14/1
f 18/15/1 16/13/1 15/16/1
f 20/17/1 21/18/1 22/19/1
f 21/18/1 23/20/1 24/21/1
f 24/21/1 23/20/1 25/22/1
f 27/23/1 28/24/1 29/25/1
f 31/26/1 32/27/1 33/28/1
f 34/29/1 33/28/1 35/30/1
f 37/31/1 38/32/1 28/24/1
f 36/33/1 35/30/1 38/32/1
f 29/25/1 39/34/1 40/35/1
f 39/34/1 41/36/1 42/37/1
f 41/36/1 43/38/1 44/39/1
f 44/39/1 45/40/1 46/41/1
f 47/42/1 46/41/1 48/43/1
f 49/44/1 48/43/1 50/45/1
f 44/39/1 43/38/1 45/40/1
f 53/46/1 54/47/1 55/48/1
f 54/47/1 56/49/1 57/50/1
f 56/49/1 58/51/1 59/52/1
f 59/52/1 58/51/1 60/53/1
f 60/53/1 62/54/1 63/55/1
f 62/54/1 64/56/1 65/57/1
f 64/56/1 66/58/1 67/59/1
f 66/58/1 68/60/1 69/61/1
f 68/60/1 70/62/1 71/63/1
f 70/62/1 72/64/1 73/65/1
f 72/64/1 74/66/1 75/67/1
f 75/67/1 74/66/1 76/68/1
f 77/69/1 76/68/1 78/70/1
f 80/71/1 78/70/1 81/72/1
f 81/72/1 78/70/1 82/73/1
f 84/74/1 85/75/1 86/76/1
f 79/77/1 78/70/1 80/71/1
f 82/73/1 78/70/1 85/75/1
f 88/78/1 85/75/1 84/74/1
f 87/79/1 86/76/1 89/80/1
f 90/81/1 89/80/1 91/82/1
f 92/83/1 91/82/1 93/84/1
f 93/84/1 95/85/1 96/86/1
f 95/85/1 97/87/1 98/88/1
f 97/87/1 99/89/1 100/90/1
f 99/89/1 101/91/1 102/92/1
f 101/91/1 103/93/1 104/94/1
f 103/93/1 105/95/1 106/96/1
f 105/95/1 107/97/1 108/98/1
f 107/97/1 109/99/1 110/100/1
f 109/99/1 111/101/1 112/102/1
f 111/101/1 113/103/1 114/104/1
f 113/103/1 115/105/1 116/106/1
f 117/107/1 118/108/1 119/109/1
f 116/106/1 115/105/1 117/107/1
f 118/108/1 120/110/1 121/111/1
f 120/110/1 122/112/1 123/113/1
f 122/112/1 124/114/1 125/115/1
f 124/114/1 126/116/1 127/117/1
f 126/116/1 128/118/1 129/119/1
f 128/118/1 130/120/1 131/121/1
f 130/120/2 132/122/2 133/123/2
f 134/124/1 135/125/1 136/126/1
f 138/127/1 139/128/1 135/125/1
f 140/129/1 141/130/1 139/128/1
f 133/123/1 132/122/1 142/131/1
f 133/123/1 142/131/1 143/132/1
f 133/123/1 143/132/1 141/130/1
f 136/126/1 144/133/1 145/134/1
f 144/133/1 146/135/1 147/136/1
f 147/136/1 146/135/1 148/137/1
f 149/138/1 148/137/1 150/139/1
f 150/139/1 152/140/1 153/141/1
f 153/141/1 152/140/1 154/142/1
f 154/142/1 155/143/1 156/144/1
f 155/143/1 157/145/1 3/3/1
f 3/3/1 157/145/1 4/146/1
f 9/7/1 158/147/1 159/148/1
f 158/147/1 18/15/1 17/149/1
f 19/150/1 160/151/1 161/152/1
f 13/11/1 160/151/1 19/150/1
f 25/22/1 32/27/1 31/26/1
f 26/153/1 25/22/1 162/154/1
f 19/150/1 161/152/1 20/17/1
f 50/45/1 53/46/1 52/155/1
f 4/146/1 1/1/1 3/3/1
f 2/2/1 1/1/1 6/5/1
f 7/9/1 8/6/1 10/8/1
f 6/5/1 5/4/1 7/9/1
f 11/14/1 12/10/1 14/12/1
f 15/16/1 16/13/1 11/14/1
f 17/149/1 18/15/1 15/16/1
f 19/150/1 20/17/1 22/19/1
f 22/19/1 21/18/1 24/21/1
f 26/153/1 24/21/1 25/22/1
f 30/156/1 27/23/1 29/25/1
f 34/29/1 31/26/1 33/28/1
f 36/33/1 34/29/1 35/30/1
f 27/23/1 37/31/1 28/24/1
f 37/31/1 36/33/1 38/32/1
f 30/156/1 29/25/1 40/35/1
f 40/35/1 39/34/1 42/37/1
f 42/37/1 41/36/1 44/39/1
f 47/42/1 44/39/1 46/41/1
f 49/44/1 47/42/1 48/43/1
f 51/157/1 49/44/1 50/45/1
f 52/155/1 53/46/1 55/48/1
f 55/48/1 54/47/1 57/50/1
f 57/50/1 56/49/1 59/52/1
f 61/158/1 59/52/1 60/53/1
f 61/158/1 60/53/1 63/55/1
f 63/55/1 62/54/1 65/57/1
f 65/57/1 64/56/1 67/59/1
f 67/59/1 66/58/1 69/61/1
f 69/61/1 68/60/1 71/63/1
f 71/63/1 70/62/1 73/65/1
f 73/65/1 72/64/1 75/67/1
f 77/69/1 75/67/1 76/68/1
f 79/77/1 77/69/1 78/70/1
f 83/159/1 81/72/1 82/73/1
f 87/79/1 84/74/1 86/76/1
f 88/78/1 82/73/1 85/75/1
f 90/81/1 87/79/1 89/80/1
f 92/83/1 90/81/1 91/82/1
f 94/160/1 92/83/1 93/84/1
f 94/160/1 93/84/1 96/86/1
f 96/86/1 95/85/1 98/88/1
f 98/88/1 97/87/1 100/90/1
f 100/90/1 99/89/1 102/92/1
f 102/92/1 101/91/1 104/94/1
f 104/94/1 103/93/1 106/96/1
f 106/96/1 105/95/1 108/98/1
f 108/98/1 107/97/1 110/100/1
f 110/100/1 109/99/1 112/102/1
f 112/102/1 111/101/1 114/104/1
f 114/104/1 113/103/1 116/106/1
f 116/106/1 117/107/1 119/109/1
f 119/109/1 118/108/1 121/111/1
f 121/111/1 120/110/1 123/113/1
f 123/113/1 122/112/1 125/115/1
f 125/115/1 124/114/1 127/117/1
f 127/117/1 126/116/1 129/119/1
f 129/119/1 128/118/1 131/121/1
f 131/121/1 130/120/1 133/123/1
f 137/161/1 134/124/1 136/126/1
f 134/124/1 138/127/1 135/125/1
f 138/127/1 140/129/1 139/128/1
f 140/129/1 133/123/1 141/130/1
f 137/161/1 136/126/1 145/134/1
f 145/134/1 144/133/1 147/136/1
f 149/138/1 147/136/1 148/137/1
f 151/162/1 149/138/1 150/139/1
f 151/162/1 150/139/1 153/141/1
f 153/141/1 154/142/1 156/144/1
f 156/144/1 155/143/1 3/3/1
f 10/8/1 9/7/1 159/148/1
f 159/148/1 158/147/1 17/149/1
f 14/12/1 13/11/1 19/150/1
f 162/154/1 25/22/1 31/26/1
f 51/157/1 50/45/1 52/155/1
